<?xml version="1.0" encoding="utf-8"?>
<!-- Generator: Adobe Illustrator 21.1.0, SVG Export Plug-In . SVG Version: 6.00 Build 0)  -->
<svg version="1.1" id="Layer_1" xmlns="http://www.w3.org/2000/svg" xmlns:xlink="http://www.w3.org/1999/xlink" x="0px" y="0px"
	 viewBox="0 0 1920 1080" style="enable-background:new 0 0 1920 1080;" xml:space="preserve">
<style type="text/css">
	.st0{fill:#2D1650;}
</style>
<g>
	<path class="st0" d="M780.5,481.3l13.8,32.9l13.8-32.9h22v63.1H812v-34.6l-10.8,28.4h-13.7l-10.8-28.4v34.6h-18.2v-63.1
		L780.5,481.3L780.5,481.3z"/>
	<path class="st0" d="M861.2,481.3l13.8,32.9l13.8-32.9h22v63.1h-18.2v-34.6l-10.8,28.4h-13.7l-10.8-28.4v34.6h-18.2v-63.1
		L861.2,481.3L861.2,481.3z"/>
	<path class="st0" d="M956,544.4l-7.6-16.4h-7.8v16.4h-20.9v-63.1h30.5c17.1,0,26.9,8.2,26.9,22.6c0,9.2-3.5,16-10,20l12.4,20.5H956
		z M940.7,512.2h9.6c4.5,0,7.1-2.8,7.1-7.6c0-4.7-2.6-7.4-7.1-7.4h-9.6V512.2z"/>
</g>
<g>
	<path class="st0" d="M768.5,462.6c-3.2,0-5.5,2.4-5.5,5.9c0,3.6,2.3,6,5.5,6c2.3,0,4.2-0.8,5.4-2.4l3,2.5c-1.8,2.6-4.8,4.1-8.7,4.1
		c-6,0-10.2-4.1-10.2-10.2s4.2-10.3,10.2-10.3c3.7,0,6.6,1.4,8.4,3.7l-3,2.8C772.5,463.4,770.8,462.6,768.5,462.6z"/>
	<path class="st0" d="M801,466v12.6h-5v-11.1c0-2.8-1.7-4.6-4.5-4.6c-3.3,0-5.3,2.5-5.3,5.8v9.9h-4.9v-27.9h4.9v11.6
		c1.4-2.7,4-4,7.3-4C798.2,458.2,801,461.2,801,466z"/>
	<path class="st0" d="M824.5,470.2h-14.9c0.6,2.9,2.8,4.6,5.8,4.6c2.1,0,4-0.8,5.4-2.3l2.6,2.7c-2,2.2-4.9,3.5-8.5,3.5
		c-6.2,0-10.3-4.1-10.3-10.2s4.2-10.3,10.2-10.3C821.9,458.3,825,462.9,824.5,470.2z M820,466.9c-0.1-3-2.1-4.9-5.2-4.9
		c-2.9,0-4.9,1.9-5.4,4.9H820z"/>
	<path class="st0" d="M837.3,462.6c-3.2,0-5.5,2.4-5.5,5.9c0,3.6,2.3,6,5.5,6c2.3,0,4.2-0.8,5.4-2.4l3,2.5c-1.8,2.6-4.8,4.1-8.7,4.1
		c-6,0-10.2-4.1-10.2-10.2s4.2-10.3,10.2-10.3c3.7,0,6.6,1.4,8.4,3.7l-3,2.8C841.3,463.4,839.5,462.6,837.3,462.6z"/>
	<path class="st0" d="M858.1,469.7L855,473v5.6h-4.9v-27.9h4.9v16.2l8.3-8.4h5.6l-7.5,7.8l7.9,12.3h-5.8L858.1,469.7z"/>
</g>
<image style="overflow:visible;" width="1024" height="580" xlink:href="bane.png"  transform="matrix(0.24 0 0 0.24 564.24 405.2)">
</image>
</svg>
