<svg xmlns="http://www.w3.org/2000/svg" xmlns:xlink="http://www.w3.org/1999/xlink" viewBox="0 0 415.26 139.2"><defs><style>.cls-1{fill:#2d1650;}</style></defs><title>logoAsset 2</title><g id="Layer_2" data-name="Layer 2"><g id="Layer_1-2" data-name="Layer 1"><path class="cls-1" d="M216.26,76.1l13.8,32.9,13.8-32.9h22v63.1h-18.1V104.6L237,133h-13.7l-10.8-28.4v34.6h-18.2V76.1h22Z"/><path class="cls-1" d="M297,76.1l13.8,32.9,13.8-32.9h22v63.1h-18.2V104.6L317.56,133h-13.7l-10.8-28.4v34.6h-18.2V76.1H297Z"/><path class="cls-1" d="M391.76,139.2l-7.6-16.4h-7.8v16.4h-20.9V76.1H386c17.1,0,26.9,8.2,26.9,22.6,0,9.2-3.5,16-10,20l12.4,20.5ZM376.46,107h9.6c4.5,0,7.1-2.8,7.1-7.6s-2.6-7.4-7.1-7.4h-9.6Z"/><path class="cls-1" d="M204.26,57.4c-3.2,0-5.5,2.4-5.5,5.9s2.3,6,5.5,6a6.44,6.44,0,0,0,5.4-2.4l3,2.5c-1.8,2.6-4.8,4.1-8.7,4.1-6,0-10.2-4.1-10.2-10.2S198,53,204,53a10.28,10.28,0,0,1,8.4,3.7l-3,2.8A6.38,6.38,0,0,0,204.26,57.4Z"/><path class="cls-1" d="M236.76,60.8V73.4h-5V62.3a4.23,4.23,0,0,0-4.5-4.6c-3.3,0-5.3,2.5-5.3,5.8v9.9h-4.9V45.5H222V57.1c1.4-2.7,4-4,7.3-4C234,53,236.76,56,236.76,60.8Z"/><path class="cls-1" d="M260.26,65h-14.9a5.56,5.56,0,0,0,5.8,4.6,7.25,7.25,0,0,0,5.4-2.3l2.6,2.7a11.12,11.12,0,0,1-8.5,3.5c-6.2,0-10.3-4.1-10.3-10.2s4.2-10.3,10.2-10.3C257.66,53.1,260.76,57.7,260.26,65Zm-4.5-3.3a4.81,4.81,0,0,0-5.2-4.9c-2.9,0-4.9,1.9-5.4,4.9Z"/><path class="cls-1" d="M273.06,57.4c-3.2,0-5.5,2.4-5.5,5.9s2.3,6,5.5,6a6.44,6.44,0,0,0,5.4-2.4l3,2.5c-1.8,2.6-4.8,4.1-8.7,4.1-6,0-10.2-4.1-10.2-10.2s4.2-10.3,10.2-10.3a10.28,10.28,0,0,1,8.4,3.7l-3,2.8A6.53,6.53,0,0,0,273.06,57.4Z"/><path class="cls-1" d="M293.86,64.5l-3.1,3.3v5.6h-4.9V45.5h4.9V61.7l8.3-8.4h5.6l-7.5,7.8,7.9,12.3h-5.8Z"/><image width="1024" height="580" transform="scale(0.24)" xlink:href="bane.png"/></g></g></svg>